<svg width="96" height="20" viewBox="0 0 96 20" fill="none" xmlns="http://www.w3.org/2000/svg">
<path d="M25.7078 3.80161C25.3467 3.80923 24.9942 3.69092 24.7107 3.46699C24.4273 3.24306 24.2306 2.92747 24.1545 2.57437C24.0783 2.22126 24.1274 1.85266 24.2934 1.53181C24.4593 1.21097 24.7318 0.957876 25.064 0.815973C25.3961 0.674069 25.7673 0.652199 26.1139 0.754114C26.4604 0.85603 26.7607 1.07538 26.9632 1.37452C27.1657 1.67366 27.2577 2.03394 27.2236 2.39355C27.1894 2.75315 27.0312 3.08966 26.776 3.34532C26.6387 3.49055 26.4731 3.606 26.2893 3.6845C26.1056 3.763 25.9077 3.80286 25.7078 3.80161ZM26.9989 16.0072H24.3027V5.21194H26.9989V16.0072Z" fill="white"/>
<path d="M35.2114 5.09073C35.8142 5.08429 36.4126 5.19341 36.9743 5.4122C37.4926 5.61406 37.9613 5.92533 38.3484 6.32477C38.7406 6.73867 39.0425 7.22952 39.235 7.76622C39.4563 8.37588 39.5652 9.02061 39.5565 9.66913V16.0053H36.8551V10.0165C36.869 9.70678 36.8211 9.39736 36.7143 9.10628C36.6075 8.8152 36.4438 8.54827 36.2329 8.32102C35.8019 7.90565 35.2267 7.67357 34.6281 7.67357C34.0295 7.67357 33.4543 7.90565 33.0233 8.32102C32.8107 8.54735 32.6457 8.81401 32.5379 9.10523C32.4302 9.39645 32.3819 9.70633 32.3959 10.0165V16.0053H29.6997V5.20998H31.7167L32.1885 6.24699C32.4583 6.02361 32.7481 5.82573 33.0544 5.6559C33.3596 5.4993 33.677 5.36752 34.0033 5.26183C34.4009 5.12866 34.8181 5.06379 35.2373 5.06999" fill="white"/>
<path d="M46.2346 16.1204C45.5715 16.1232 44.9154 15.9835 44.311 15.7107C43.7032 15.439 43.1566 15.0475 42.7036 14.5597C42.2198 14.0528 41.8347 13.4603 41.5681 12.8123C41.1511 11.7861 41.0335 10.6628 41.229 9.57257C41.4245 8.48232 41.925 7.46981 42.6725 6.65245C43.1268 6.16619 43.6732 5.77494 44.2798 5.50137C44.8843 5.22865 45.5403 5.08895 46.2035 5.09175C46.6346 5.0853 47.0638 5.15012 47.4738 5.28359C47.8045 5.38657 48.1255 5.51843 48.4331 5.67766C48.727 5.84649 49.0032 6.04453 49.2575 6.26876L49.7242 5.23174H51.7152V16.0063H49.7242L49.2575 14.9693C49.0044 15.1935 48.728 15.3899 48.4331 15.5552C48.1304 15.7286 47.8084 15.8661 47.4738 15.9648C47.0618 16.0879 46.6335 16.1473 46.2035 16.1411L46.2346 16.1204ZM49.2575 10.6294C49.277 10.2394 49.2183 9.84949 49.0847 9.48259C48.9511 9.11569 48.7454 8.77927 48.4797 8.49314C48.2274 8.24011 47.9275 8.03935 47.5974 7.90238C47.2673 7.7654 46.9135 7.69489 46.5561 7.69489C46.1987 7.69489 45.8448 7.7654 45.5147 7.90238C45.1846 8.03935 44.8848 8.24011 44.6324 8.49314C44.1335 9.09221 43.8603 9.84717 43.8603 10.6268C43.8603 11.4064 44.1335 12.1614 44.6324 12.7604C44.8848 13.0135 45.1846 13.2142 45.5147 13.3512C45.8448 13.4882 46.1987 13.5587 46.5561 13.5587C46.9135 13.5587 47.2673 13.4882 47.5974 13.3512C47.9275 13.2142 48.2274 13.0135 48.4797 12.7604C48.745 12.4751 48.9505 12.1396 49.0841 11.7736C49.2177 11.4076 49.2766 11.0185 49.2575 10.6294Z" fill="white"/>
<path d="M58.28 5.09186C58.7112 5.08455 59.1406 5.1494 59.5504 5.28371C59.8823 5.38769 60.205 5.51952 60.5148 5.67778C60.8055 5.84919 61.0797 6.04706 61.334 6.26887L61.8007 5.23186H63.7969V15.3012C63.8232 15.931 63.7168 16.5593 63.4846 17.1453C63.2523 17.7313 62.8994 18.2619 62.4488 18.7026C61.5466 19.5633 60.2815 19.9937 58.6378 19.9937C57.7958 20.0369 56.9572 19.8581 56.206 19.4752C55.6448 19.1624 55.1471 18.7474 54.7386 18.2515C54.3261 17.7278 54.0148 17.1317 53.8209 16.4938H56.5171C56.6341 16.6931 56.787 16.8689 56.9682 17.0123C57.1714 17.158 57.3928 17.2766 57.6267 17.3649C57.9498 17.4853 58.2932 17.5417 58.6378 17.5308C59.2961 17.5683 59.9426 17.3448 60.437 16.9086C60.6557 16.7034 60.8281 16.4539 60.9426 16.1767C61.057 15.8994 61.1109 15.601 61.1007 15.3012V14.4768C60.8723 14.7028 60.6183 14.9012 60.3437 15.0679C60.0642 15.2368 59.7668 15.3742 59.457 15.4775C59.0767 15.599 58.6793 15.6586 58.28 15.6538C57.623 15.6566 56.9728 15.5205 56.3719 15.2546C55.7849 14.9939 55.256 14.6184 54.8164 14.1502C54.368 13.6664 54.0161 13.1015 53.7794 12.4858C53.2611 11.1248 53.2611 9.62086 53.7794 8.25993C54.0171 7.64473 54.3689 7.08001 54.8164 6.59553C55.2588 6.13045 55.787 5.75541 56.3719 5.49112C56.9728 5.22519 57.623 5.08913 58.28 5.09186ZM56.0504 10.3754C56.0499 10.731 56.1186 11.0832 56.2527 11.4124C56.3786 11.7306 56.5653 12.0212 56.8023 12.268C57.0401 12.5191 57.3257 12.72 57.6423 12.8591C57.9602 13.0014 58.305 13.0739 58.6533 13.0717C58.9914 13.0712 59.3255 12.9987 59.6333 12.8591C59.9426 12.7247 60.2213 12.5289 60.4526 12.2835C60.691 12.0348 60.8825 11.7449 61.0177 11.428C61.1579 11.0939 61.2301 10.7352 61.2301 10.3728C61.2301 10.0105 61.1579 9.6518 61.0177 9.31768C60.885 8.9994 60.6932 8.70911 60.4526 8.46215C60.2213 8.21679 59.9426 8.02098 59.6333 7.88661C59.3263 7.7446 58.9917 7.67202 58.6533 7.67402C58.3048 7.66931 57.9594 7.74191 57.6423 7.88661C57.3325 8.02282 57.0525 8.21834 56.8178 8.46215C56.5786 8.7072 56.3917 8.99825 56.2682 9.31768C56.1348 9.64713 56.0661 9.99924 56.066 10.3547" fill="white"/>
<path d="M70.4602 16.1216C69.797 16.1244 69.141 15.9847 68.5365 15.712C67.9288 15.4403 67.3821 15.0488 66.9292 14.5609C66.4564 14.0526 66.0835 13.4598 65.8299 12.8136C65.2771 11.3947 65.2771 9.81996 65.8299 8.40108C66.0859 7.75608 66.4586 7.16375 66.9292 6.65372C67.3806 6.16242 67.9252 5.76584 68.5313 5.48708C69.1358 5.21436 69.7918 5.07467 70.455 5.07746C70.8845 5.07014 71.3121 5.13499 71.7201 5.26931C72.0541 5.37241 72.3785 5.50426 72.6898 5.66337C72.9804 5.83479 73.2547 6.03266 73.509 6.25447L73.9808 5.21746H75.9719V16.0076H73.9808L73.509 14.9705C73.2517 15.1857 72.9738 15.375 72.6794 15.5357C72.373 15.709 72.0476 15.8465 71.7098 15.9453C71.2997 16.0691 70.8729 16.1285 70.4446 16.1216H70.4602ZM73.4986 10.6099C73.5182 10.2199 73.4594 9.83002 73.3258 9.46312C73.1922 9.09623 72.9866 8.75979 72.7209 8.47367C72.4689 8.2208 72.1695 8.02015 71.8399 7.88324C71.5102 7.74633 71.1568 7.67586 70.7998 7.67586C70.4428 7.67586 70.0894 7.74633 69.7597 7.88324C69.4301 8.02015 69.1307 8.2208 68.8787 8.47367C68.376 9.07096 68.1003 9.8266 68.1003 10.6073C68.1003 11.388 68.376 12.1437 68.8787 12.741C69.1307 12.9938 69.4301 13.1945 69.7597 13.3314C70.0894 13.4683 70.4428 13.5388 70.7998 13.5388C71.1568 13.5388 71.5102 13.4683 71.8399 13.3314C72.1695 13.1945 72.4689 12.9938 72.7209 12.741C72.9862 12.4556 73.1916 12.1201 73.3252 11.7541C73.4588 11.3881 73.5178 10.9991 73.4986 10.6099Z" fill="white"/>
<path d="M79.5849 2.62866H81.9286V5.22119H84.2774V7.68409H81.9286V12.1432C81.9186 12.3475 81.9502 12.5516 82.0215 12.7432C82.0928 12.9349 82.2023 13.11 82.3434 13.258C82.4907 13.3983 82.6651 13.5069 82.8559 13.5774C83.0467 13.6478 83.2499 13.6785 83.453 13.6676H83.7641L83.9715 13.6313C84.0385 13.6164 84.1031 13.5919 84.1633 13.5588V15.9076C84.0411 15.9588 83.9144 15.9987 83.7848 16.0268C83.4876 16.1079 83.1803 16.1463 82.8723 16.1409C82.3704 16.145 81.8724 16.0535 81.4049 15.8713C80.9677 15.6992 80.5745 15.4317 80.2538 15.0883C79.9258 14.7334 79.6704 14.3177 79.502 13.8647C79.3143 13.3554 79.2228 12.8156 79.2324 12.2729V7.67372H77.5887V5.44415H78.2939C78.4692 5.4693 78.6481 5.45324 78.8162 5.39725C78.9843 5.34127 79.1371 5.24689 79.2624 5.12159C79.3877 4.9963 79.482 4.84354 79.538 4.67542C79.594 4.50731 79.6101 4.32847 79.5849 4.15307V2.62866Z" fill="white"/>
<path d="M90.3958 16.1205C89.7326 16.1239 89.0764 15.9842 88.4722 15.7109C87.8637 15.4405 87.3167 15.0488 86.8648 14.5598C86.3921 14.0504 86.0177 13.458 85.7604 12.8124C85.3434 11.7863 85.2258 10.6629 85.4213 9.57269C85.6168 8.48244 86.1173 7.46993 86.8648 6.65257C87.3181 6.16515 87.8647 5.77372 88.4722 5.50149C89.0764 5.22815 89.7326 5.08843 90.3958 5.09187C90.8253 5.08455 91.253 5.1494 91.661 5.28371C91.993 5.38769 92.3156 5.51952 92.6254 5.67778C92.9169 5.84792 93.1913 6.04588 93.4446 6.26888L93.9165 5.23186H95.9075V16.0064H93.9372L93.4654 14.9694C93.2132 15.1924 92.9387 15.3887 92.6461 15.5553C92.3411 15.7276 92.0175 15.865 91.6817 15.9649C91.2716 16.0887 90.8448 16.1481 90.4166 16.1412L90.3958 16.1205ZM93.4654 10.6295C93.4844 10.24 93.426 9.85061 93.2933 9.4839C93.1607 9.11718 92.9566 8.78046 92.6928 8.49326C92.4404 8.24023 92.1406 8.03947 91.8105 7.9025C91.4804 7.76552 91.1265 7.69501 90.7692 7.69501C90.4118 7.69501 90.0579 7.76552 89.7278 7.9025C89.3977 8.03947 89.0979 8.24023 88.8455 8.49326C88.3427 9.09055 88.067 9.84619 88.067 10.6269C88.067 11.4076 88.3427 12.1633 88.8455 12.7606C89.0979 13.0136 89.3977 13.2144 89.7278 13.3513C90.0579 13.4883 90.4118 13.5588 90.7692 13.5588C91.1265 13.5588 91.4804 13.4883 91.8105 13.3513C92.1406 13.2144 92.4404 13.0136 92.6928 12.7606C92.9562 12.4741 93.1601 12.1383 93.2927 11.7725C93.4254 11.4067 93.484 11.0182 93.4654 10.6295Z" fill="white"/>
<path d="M15.3889 8.07715H12.9571C12.5318 8.07715 12.1106 8.16101 11.7177 8.32393C11.3248 8.48685 10.9679 8.72564 10.6674 9.02663C10.3669 9.32762 10.1287 9.68491 9.96642 10.0781C9.80412 10.4712 9.72094 10.8925 9.72162 11.3178V15.1755C9.72428 15.3897 9.81019 15.5944 9.96117 15.7464C10.1121 15.8983 10.3163 15.9855 10.5305 15.9895H15.3889C15.6048 15.9895 15.8118 15.9038 15.9645 15.7511C16.1172 15.5984 16.2029 15.3914 16.2029 15.1755V8.90676C16.2043 8.79874 16.1843 8.69151 16.1441 8.59126C16.1038 8.491 16.0442 8.3997 15.9685 8.32259C15.8929 8.24548 15.8027 8.1841 15.7032 8.14198C15.6037 8.09986 15.4969 8.07782 15.3889 8.07715Z" fill="#FF0013"/>
<path d="M12.9571 6.48131C13.5983 6.48234 14.2253 6.29315 14.7589 5.93769C15.2925 5.58222 15.7087 5.07646 15.9548 4.4844C16.2008 3.89234 16.2658 3.24059 16.1413 2.61162C16.0168 1.98265 15.7086 1.40474 15.2556 0.951005C14.8026 0.497272 14.2252 0.188112 13.5964 0.0626501C12.9676 -0.0628123 12.3158 0.00106055 11.7233 0.246185C11.1309 0.49131 10.6244 0.906669 10.2681 1.4397C9.91181 1.97274 9.72162 2.59949 9.72162 3.24066C9.72162 4.09923 10.0623 4.92272 10.6689 5.53032C11.2756 6.13791 12.0985 6.47994 12.9571 6.48131Z" fill="#FF0013"/>
<path d="M7.29015 0H7.16571C6.93238 0 6.70423 0.0674063 6.47609 0.114072C5.29938 0.359421 4.19226 0.864271 3.23543 1.59181C2.61679 2.0606 2.067 2.61388 1.60214 3.23548C0.888624 4.19815 0.396431 5.30647 0.160696 6.48132C-0.0535652 7.55091 -0.0535652 8.65238 0.160696 9.72198C0.39657 10.8936 0.888821 11.9985 1.60214 12.9575C2.06697 13.5821 2.61671 14.1388 3.23543 14.6115C4.1938 15.3354 5.30047 15.8383 6.47609 16.084C6.70423 16.1359 6.93238 16.1722 7.16571 16.2033H7.29015C7.50472 16.2006 7.70967 16.1138 7.86093 15.9616C8.01218 15.8093 8.09767 15.6038 8.09901 15.3892V0.819239C8.09765 0.605134 8.012 0.400184 7.8606 0.248785C7.7092 0.0973869 7.50425 0.0117298 7.29015 0.0103703" fill="#FF0013"/>
</svg>
